<svg xmlns="http://www.w3.org/2000/svg" viewBox="0 0 100 100" width="100" height="100">
  <defs>
    <linearGradient id="fitnessGradient" x1="0%" y1="0%" x2="100%" y2="100%">
      <stop offset="0%" style="stop-color:#FF5722;stop-opacity:1" />
      <stop offset="100%" style="stop-color:#E64A19;stop-opacity:1" />
    </linearGradient>
  </defs>
  
  <!-- Dumbbell -->
  <rect x="20" y="45" width="60" height="10" fill="url(#fitnessGradient)" rx="5"/>
  <rect x="15" y="40" width="10" height="20" fill="url(#fitnessGradient)" rx="5"/>
  <rect x="75" y="40" width="10" height="20" fill="url(#fitnessGradient)" rx="5"/>
  
  <!-- Person doing exercise -->
  <circle cx="50" cy="25" r="8" fill="#FF5722"/>
  <rect x="46" y="33" width="8" height="15" fill="#FF5722"/>
  
  <!-- Arms -->
  <line x1="42" y1="35" x2="35" y2="40" stroke="#FF5722" stroke-width="3" stroke-linecap="round"/>
  <line x1="58" y1="35" x2="65" y2="40" stroke="#FF5722" stroke-width="3" stroke-linecap="round"/>
  
  <!-- Legs -->
  <line x1="46" y1="48" x2="40" y2="55" stroke="#FF5722" stroke-width="3" stroke-linecap="round"/>
  <line x1="54" y1="48" x2="60" y2="55" stroke="#FF5722" stroke-width="3" stroke-linecap="round"/>
  
  <!-- Energy lines -->
  <line x1="30" y1="20" x2="35" y2="15" stroke="#FF5722" stroke-width="2" opacity="0.7"/>
  <line x1="70" y1="20" x2="65" y2="15" stroke="#FF5722" stroke-width="2" opacity="0.7"/>
  <line x1="30" y1="25" x2="35" y2="20" stroke="#FF5722" stroke-width="2" opacity="0.5"/>
  <line x1="70" y1="25" x2="65" y2="20" stroke="#FF5722" stroke-width="2" opacity="0.5"/>
</svg> 